<svg width="48" height="48" viewBox="0 0 48 48" fill="none" xmlns="http://www.w3.org/2000/svg">
<rect width="48" height="48" rx="24" fill="#26358C"/>
<g clip-path="url(#clip0_5128_163)">
<path d="M25.0758 25.394C24.7533 25.6965 24.2474 25.6965 23.9249 25.394L13.2628 15.4C13.1104 15.2577 13.2105 15 13.4182 15H35.5826C35.7902 15 35.8896 15.2577 35.7379 15.4L25.0765 25.394H25.0758ZM20.5842 24.2492L12.3829 31.9371C12.2371 32.0741 12 31.9691 12 31.768V16.232C12 16.0309 12.2371 15.9259 12.3829 16.0629L20.5842 23.7508C20.7278 23.8857 20.7278 24.1151 20.5842 24.2499V24.2492ZM21.4155 24.9583C21.5444 24.8376 21.7432 24.8376 21.872 24.9583L23.1908 26.1948C23.5575 26.5389 24.0287 26.711 24.4993 26.711C24.9698 26.711 25.441 26.5389 25.8077 26.1948L27.1265 24.9583C27.2554 24.8376 27.4542 24.8376 27.583 24.9583L35.7357 32.6C35.8881 32.7423 35.788 33 35.5803 33H13.4182C13.2105 33 13.1111 32.7423 13.2628 32.6L21.4155 24.9583ZM28.4158 23.7508L36.6171 16.0629C36.7629 15.9259 37 16.0309 37 16.232V31.7672C37 31.9683 36.7629 32.0734 36.6171 31.9363L28.4158 24.2484C28.2722 24.1136 28.2722 23.8842 28.4158 23.7493V23.7508Z" fill="white"/>
</g>
<defs>
<clipPath id="clip0_5128_163">
<rect width="25" height="18" fill="white" transform="translate(12 15)"/>
</clipPath>
</defs>
</svg>
