<svg width="753" height="337" viewBox="0 0 753 337" fill="none" xmlns="http://www.w3.org/2000/svg">
<g clip-path="url(#clip0_5128_170)">
<path d="M0 0.513242C8.84775 4.90791 17.7457 9.15234 26.7064 13.2215C32.5171 15.8633 38.2524 19.8698 43.9501 25.0533C49.6353 30.2368 54.7556 36.9727 59.2987 45.1236C63.8419 53.2869 67.519 63.0027 70.3051 74.3212C73.0912 85.6522 74.4968 98.8613 74.4968 114.349C74.4968 129.837 73.1038 142.633 70.3051 153.087C67.5064 163.542 63.8544 172.093 59.2987 178.779C54.7556 185.453 49.6227 190.561 43.9501 193.929C38.2524 197.297 32.5171 199.35 26.7064 199.876V324.304C17.7457 328.373 8.8352 332.605 0 337.012L0 0.513242ZM26.7064 153.3C30.8479 153.488 34.2741 152.937 36.9347 151.697C39.5952 150.458 41.6911 148.204 43.1971 144.949C44.7031 141.694 45.7071 137.374 46.2091 131.953C46.7111 126.544 46.9621 119.733 46.9621 111.482C46.9621 103.243 46.7111 96.2069 46.2091 90.3599C45.7071 84.5128 44.7031 79.5923 43.1971 75.5607C41.6911 71.5291 39.5952 68.2237 36.9347 65.6445C34.2615 63.0653 30.8479 61.0996 26.7064 59.7725V153.3ZM69.9662 306.074C79.3411 210.882 88.7787 123.151 98.2665 41.8307C109.536 45.7496 120.882 49.4306 132.277 52.8612C141.865 133.004 151.491 207.201 161.155 276.501C152.018 278.905 142.907 281.459 133.833 284.164C132.101 268.976 130.382 253.589 128.65 237.976C119.677 239.603 110.741 241.306 101.856 243.122C100.149 260.563 98.4422 278.254 96.7228 296.196C87.7621 299.338 78.8391 302.631 69.9662 306.074ZM116.765 126.544C116.502 122.249 116.251 117.942 115.987 113.623C115.473 113.548 114.958 113.473 114.443 113.397C114.18 117.654 113.929 121.924 113.665 126.193C111.005 151.51 108.344 177.352 105.696 203.782C112.034 203.182 118.384 202.606 124.76 202.042C122.086 177.402 119.426 152.248 116.753 126.544M200.875 164.606C200.085 161.564 199.294 158.509 198.503 155.441C197.976 155.429 197.449 155.416 196.922 155.391V267.937C188.237 269.815 179.565 271.831 170.931 273.997V63.5035C179.302 65.5945 187.71 67.5602 196.131 69.3881C205.343 105.91 214.592 140.191 223.854 172.707C224.645 175.586 225.448 178.466 226.239 181.333C226.766 181.321 227.293 181.308 227.833 181.296V75.6609C236.58 77.2134 245.34 78.6282 254.112 79.9053V257.608C245.604 258.847 237.107 260.212 228.636 261.715C219.361 231.065 210.112 198.849 200.888 164.606M346.819 216.178C346.455 222.763 344.849 228.636 342 233.844C340.745 236.085 339.189 238.264 337.306 240.392C335.424 242.521 333.14 244.499 330.479 246.327C327.806 248.167 324.631 249.67 320.966 250.872C317.314 252.074 313.072 252.875 308.253 253.263C303.434 253.664 299.154 253.564 295.414 252.938C291.675 252.312 288.474 251.26 285.801 249.758C283.128 248.268 280.907 246.527 279.125 244.524C277.342 242.533 275.836 240.43 274.594 238.201C271.745 233.018 270.151 226.858 269.8 219.809V117.642C270.164 110.743 271.745 104.671 274.594 99.4747C275.836 97.2586 277.342 95.1051 279.125 93.0392C280.907 90.9734 283.128 89.233 285.801 87.8057C288.474 86.3909 291.675 85.3392 295.414 84.6255C299.142 83.9244 303.434 83.7866 308.253 84.1873C313.06 84.588 317.302 85.4143 320.966 86.6914C324.618 87.9685 327.793 89.4835 330.479 91.2363C333.165 93.0017 335.436 94.9799 337.306 97.171C339.176 99.3746 340.745 101.591 342 103.832C344.861 109.053 346.468 114.85 346.819 121.285V216.14V216.178ZM317.879 120.434C317.879 118.205 317.515 116.177 316.812 114.362C316.273 112.847 315.331 111.432 314.001 110.092C312.658 108.752 310.751 108.014 308.253 107.863C305.756 107.713 303.848 108.239 302.505 109.428C301.175 110.63 300.234 111.97 299.694 113.448C298.979 115.225 298.627 117.254 298.627 119.52V217.981C298.627 220.41 298.991 222.438 299.694 224.053C300.234 225.693 301.162 227.07 302.505 228.185C303.848 229.312 305.756 229.787 308.253 229.637C310.751 229.487 312.671 228.786 314.001 227.521C315.331 226.257 316.273 224.804 316.812 223.139C317.528 221.474 317.879 219.446 317.879 217.067V120.434ZM414.25 249.582C409.243 226.632 404.248 203.92 399.241 181.321C396.655 181.321 394.057 181.296 391.46 181.296V248.881C381.809 248.706 372.145 248.706 362.494 248.869V88.6571C372.145 88.8199 381.809 88.8073 391.46 88.6446C408.804 88.3316 421.354 91.5368 429.122 99.1367C436.891 106.699 440.769 118.318 440.769 133.893C440.769 142.119 439.476 149.669 436.891 156.48C434.305 163.291 430.239 168.237 424.705 171.317C430.867 197.597 437.029 224.216 443.178 251.373C433.552 250.621 423.901 250.02 414.263 249.595M412.908 135.458C412.908 129.737 412.155 125.292 410.636 122.112C409.117 118.932 407.285 116.603 405.139 115.113C402.993 113.635 400.671 112.734 398.161 112.408C395.651 112.095 393.417 111.945 391.46 111.97V159.498C393.417 159.498 395.651 159.31 398.161 158.934C400.659 158.571 402.993 157.607 405.139 156.067C407.285 154.527 409.117 152.136 410.636 148.905C412.155 145.675 412.908 141.193 412.908 135.471M445.475 251.548C455.377 197.159 465.266 141.331 475.13 83.0229C486.865 81.6457 498.586 80.0305 510.258 78.165C520.085 136.986 529.886 198.762 539.663 264.544C530.413 262.729 521.151 261.076 511.852 259.574C510.082 246.928 508.313 234.407 506.543 222C497.331 221.161 488.107 220.397 478.858 219.734C477.076 231.327 475.306 242.846 473.524 254.277C464.187 253.201 454.837 252.287 445.475 251.523M494.307 137.912C494.043 134.807 493.767 131.702 493.504 128.61C492.977 128.647 492.437 128.672 491.91 128.71C491.646 131.84 491.37 134.958 491.107 138.075C488.358 156.668 485.597 175.023 482.849 193.165C489.425 193.403 495.989 193.653 502.552 193.929C499.804 174.998 497.055 156.343 494.307 137.912ZM596.476 277.741C590.477 230.464 584.466 185.277 578.442 141.932C578.091 139.014 577.739 136.11 577.388 133.217C576.861 133.255 576.334 133.305 575.819 133.343V272.47C567.084 270.354 558.312 268.388 549.527 266.56V70.9532C561.123 68.5368 572.682 65.8699 584.203 62.9652C589.787 93.7905 595.359 125.855 600.907 159.31C601.346 163.191 601.773 167.098 602.212 171.017C602.387 171.017 602.563 171.017 602.726 171.017C603.166 167.11 603.592 163.179 604.031 159.235C609.579 125.254 615.126 89.8591 620.648 52.8862C632.043 49.4556 643.388 45.7871 654.658 41.8682V295.645C646.124 292.678 637.54 289.848 628.931 287.156V128.322C628.416 128.372 627.902 128.435 627.375 128.485C627.023 131.84 626.684 135.183 626.345 138.513C620.397 188.27 614.435 235.697 608.449 281.046C604.458 279.907 600.467 278.805 596.476 277.728M664.234 299.038C673.684 215.602 683.084 125.505 692.434 27.7201C703.553 23.2504 714.584 18.5301 725.541 13.5595C734.752 112.847 743.914 220.322 753 337C744.403 332.718 735.744 328.599 727.034 324.63C725.377 302.669 723.708 281.021 722.052 259.674C713.405 257.382 704.708 255.179 695.96 253.075C694.279 272.056 692.597 290.762 690.915 309.192C682.067 305.649 673.169 302.268 664.234 299.038ZM710.556 116.803C710.305 111.582 710.054 106.374 709.803 101.178C709.301 101.278 708.799 101.378 708.297 101.478C708.046 106.749 707.795 112.008 707.544 117.254C704.946 148.63 702.348 179.318 699.75 209.317C705.963 210.043 712.15 210.781 718.312 211.558C715.727 179.255 713.141 147.678 710.556 116.803ZM752.975 10.3042C752.975 17.7789 749.75 25.0408 745.746 26.6935C741.768 28.3336 738.517 23.964 738.517 16.915C738.517 9.81592 741.768 2.49147 745.746 0.500722C749.75 -1.51507 752.975 2.84204 752.975 10.3167M751.858 10.8176C751.858 4.4697 749.16 0.763651 745.746 2.46643C742.358 4.14417 739.622 10.3418 739.609 16.4267C739.609 22.449 742.345 26.1426 745.746 24.7152C749.16 23.2879 751.858 17.1153 751.858 10.8176ZM749.034 19.2563C749.122 19.5568 749.059 19.9324 748.884 20.0076C748.507 20.1703 748.143 20.3331 747.767 20.4959C747.679 20.5334 747.578 20.4708 747.516 20.258C746.951 18.6178 746.374 16.9776 745.809 15.3625C745.382 15.5503 744.955 15.7506 744.529 15.9384V21.4474C744.529 21.7354 744.428 21.9357 744.278 22.0108C743.951 22.1486 743.638 22.2863 743.311 22.424C743.186 22.4741 743.123 22.3364 743.123 22.0609V7.16159C743.123 6.88614 743.186 6.68582 743.311 6.62321C744.215 6.19752 745.119 5.7593 746.01 5.32109C747.967 4.36954 748.796 5.95963 748.808 8.639V9.32763C748.808 11.2683 748.281 13.1589 747.265 14.3108C747.854 15.9509 748.444 17.6036 749.034 19.2563ZM744.529 13.6973C744.981 13.4844 745.445 13.2841 745.897 13.0712C747.026 12.5579 747.415 11.4686 747.415 9.75332V9.46535C747.415 7.87526 747.014 7.16159 745.897 7.68745C745.445 7.9003 744.981 8.12567 744.529 8.33851V13.6847V13.6973Z" fill="#1D2339"/>
<path d="M176.252 316.843L179.967 315.766C180.808 317.782 182.214 319.259 185.69 318.245C188.012 317.569 189.242 315.866 188.677 313.925C188.125 312.01 186.958 311.571 183.431 311.997C178.273 312.736 175.499 311.972 174.357 308.066C173.366 304.685 175.537 301.292 179.854 300.04C184.347 298.738 187.547 300.003 189.141 303.846L185.602 304.873C184.586 302.782 183.105 302.244 180.695 302.932C178.348 303.608 177.445 305.061 177.922 306.689C178.424 308.391 179.352 309.005 183.105 308.479C188.175 307.765 191.086 308.366 192.304 312.523C193.345 316.116 191.086 319.81 186.531 321.137C180.871 322.777 177.708 320.649 176.252 316.83V316.843Z" fill="#1D2339"/>
<path d="M199.055 295.032C203.736 293.817 207.351 295.107 208.493 299.452L208.518 299.564C209.672 303.971 206.999 306.751 202.531 307.915L199.607 308.679L201.691 316.605L197.8 317.619L192.341 296.772L199.068 295.019L199.055 295.032ZM204.728 300.566L204.703 300.453C204.05 297.974 202.343 297.398 199.858 298.037L197.022 298.775L198.892 305.887L201.728 305.148C204.301 304.472 205.355 302.895 204.74 300.566H204.728Z" fill="#1D2339"/>
<path d="M223.867 289.021L224.582 292.101L215.346 294.255L216.689 300.002L224.106 298.274L224.796 301.204L217.379 302.932L218.809 309.067L228.548 306.8L229.264 309.88L215.609 313.048L210.702 292.064L223.855 289.009L223.867 289.021Z" fill="#1D2339"/>
<path d="M229.276 298.963L229.225 298.725C227.933 292.377 231.384 287.069 237.307 285.867C242.164 284.878 246.419 286.543 247.9 291.413L243.909 292.227C242.892 289.485 241.06 288.371 237.985 288.997C234.283 289.748 232.413 293.141 233.379 297.861L233.43 298.099C234.396 302.857 237.22 305.211 241.16 304.409C244.122 303.809 245.829 301.93 245.666 298.85L249.519 298.074C249.933 303.308 246.871 306.576 241.813 307.602C235.187 308.942 230.618 305.474 229.301 298.976L229.276 298.963Z" fill="#1D2339"/>
<path d="M254.74 282.899L258.543 304.109L254.564 304.823L250.762 283.613L254.753 282.899H254.74Z" fill="#1D2339"/>
<path d="M270.917 280.258L281.295 300.441L277.179 301.079L274.657 296.071L266.512 297.348L265.671 302.882L261.943 303.471L265.733 281.072L270.929 280.258H270.917ZM273.276 293.329L268.595 283.939L266.988 294.318L273.289 293.329H273.276Z" fill="#1D2339"/>
<path d="M285.776 278.141L288.123 296.346L297.259 295.169L297.674 298.337L284.546 300.015L281.798 278.642L285.789 278.129L285.776 278.141Z" fill="#1D2339"/>
<path d="M313.16 275.111C317.967 274.673 321.33 276.538 321.744 281.008V281.133C322.171 285.666 319.084 287.982 314.478 288.408L311.466 288.683L312.219 296.847L308.215 297.21L306.232 275.75L313.147 275.111H313.16ZM317.854 281.484V281.359C317.603 278.805 316.009 277.953 313.449 278.191L310.525 278.454L311.202 285.779L314.126 285.516C316.774 285.278 318.067 283.875 317.854 281.484Z" fill="#1D2339"/>
<path d="M332.411 273.61C337.143 273.309 340.581 275.024 340.87 279.406V279.532C341.096 282.925 339.063 284.715 336.453 285.617L343.104 294.519L338.762 294.794L332.562 286.468L330.002 286.631L330.567 295.32L326.563 295.583L325.183 274.085L332.411 273.622V273.61ZM336.929 279.882V279.757C336.766 277.265 335.172 276.552 332.612 276.715L329.387 276.927L329.826 283.789L333.051 283.588C335.8 283.413 337.08 282.186 336.929 279.895V279.882Z" fill="#1D2339"/>
<path d="M344.522 283.763V283.525C344.309 277.227 348.651 272.407 355.089 272.194C361.49 271.981 366.108 276.388 366.322 282.711V282.949C366.535 289.209 362.381 294.117 355.817 294.33C349.203 294.543 344.736 289.96 344.522 283.75V283.763ZM362.155 283.124V282.886C362.004 278.454 359.419 275.249 355.19 275.399C350.96 275.537 348.563 278.73 348.714 283.362V283.6C348.877 288.295 351.851 291.25 355.767 291.125C359.846 290.987 362.306 287.807 362.155 283.137V283.124Z" fill="#1D2339"/>
<path d="M367.966 293.417L367.916 290.287C368.682 290.6 369.409 290.8 370.702 290.788C372.66 290.75 373.915 289.711 373.877 287.056L373.626 272.145L377.667 272.082L377.918 287.082C377.994 291.752 375.346 293.93 371.355 294.005C369.548 294.03 368.669 293.78 367.966 293.429V293.417Z" fill="#1D2339"/>
<path d="M396.517 272.319L396.467 275.487L386.979 275.337L386.879 281.247L394.484 281.372L394.434 284.389L386.829 284.264L386.728 290.562L396.718 290.725L396.668 293.892L382.649 293.667L383.001 272.119L396.505 272.345L396.517 272.319Z" fill="#1D2339"/>
<path d="M399.366 283.249V283.012C399.655 276.538 404.286 272.206 410.322 272.469C415.267 272.682 418.994 275.311 419.27 280.395L415.192 280.22C414.865 277.315 413.359 275.8 410.222 275.662C406.444 275.499 403.821 278.341 403.608 283.162V283.4C403.395 288.245 405.566 291.2 409.582 291.375C412.606 291.5 414.715 290.086 415.305 287.068L419.233 287.231C418.379 292.414 414.614 294.843 409.456 294.631C402.692 294.343 399.103 289.873 399.391 283.249H399.366Z" fill="#1D2339"/>
<path d="M421.642 276.514L421.868 273.358L437.895 274.498L437.669 277.653L431.67 277.227L430.365 295.557L426.324 295.269L427.629 276.939L421.63 276.514H421.642Z" fill="#1D2339"/>
<path d="M438.61 289.448L442.463 289.823C442.488 292.002 443.254 293.893 446.856 294.243C449.265 294.481 451.035 293.354 451.236 291.338C451.424 289.36 450.508 288.509 447.082 287.607C442.011 286.393 439.727 284.652 440.116 280.596C440.455 277.09 443.718 274.736 448.199 275.174C452.855 275.625 455.365 277.992 455.415 282.148L451.75 281.798C451.587 279.482 450.407 278.43 447.91 278.179C445.475 277.941 444.095 278.956 443.932 280.633C443.756 282.399 444.396 283.313 448.073 284.214C453.055 285.429 455.54 287.056 455.114 291.376C454.75 295.094 451.273 297.699 446.554 297.235C440.694 296.66 438.535 293.517 438.61 289.435V289.448Z" fill="#1D2339"/>
<path d="M479.184 279.131L483.3 301.455L479.171 300.891L478.193 295.37L470.023 294.243L467.613 299.301L463.873 298.788L473.976 278.417L479.184 279.131ZM477.665 292.34L475.883 281.998L471.34 291.476L477.653 292.34H477.665Z" fill="#1D2339"/>
<path d="M486.024 291.1L486.061 290.862C487.128 284.539 492.311 280.758 498.536 281.809C503.092 282.573 506.794 285.34 506.493 290.511L502.527 289.848C502.527 286.918 500.833 285.403 498.059 284.94C493.893 284.238 490.956 286.918 490.165 291.588L490.128 291.826C489.362 296.346 490.968 299.851 495.411 300.603C499.402 301.279 501.41 299.175 502.063 296.221L496.704 295.319L497.206 292.352L506.468 293.917L506.141 295.882C505.15 301.73 500.883 304.709 494.834 303.695C488.019 302.543 484.969 297.385 486.036 291.112L486.024 291.1Z" fill="#1D2339"/>
<path d="M525.82 287.281L525.193 290.387L515.893 288.534L514.738 294.33L522.206 295.82L521.616 298.775L514.149 297.285L512.906 303.458L522.708 305.411L522.08 308.516L508.338 305.774L512.567 284.64L525.808 287.281H525.82Z" fill="#1D2339"/>
<path d="M535.144 289.334L540.491 306.563L544.005 291.375L547.569 292.202L542.712 313.198L538.646 312.259L532.898 293.979L529.171 310.068L525.606 309.242L530.463 288.245L535.144 289.322V289.334Z" fill="#1D2339"/>
<path d="M549.151 303.795L549.213 303.558C550.883 297.297 556.342 294.067 562.178 295.607C566.972 296.872 570.034 300.252 569.206 305.26L565.265 304.221C565.566 301.304 564.424 299.513 561.387 298.7C557.735 297.736 554.547 299.939 553.317 304.609L553.254 304.847C551.999 309.542 553.493 312.898 557.371 313.924C560.295 314.701 562.667 313.762 563.884 310.945L567.687 311.946C565.729 316.829 561.525 318.394 556.543 317.067C550.004 315.339 547.456 310.206 549.163 303.795H549.151Z" fill="#1D2339"/>
<path d="M572.418 298.713L576.672 299.977L578.793 309.906L585.884 302.707L589.649 303.821L579.672 313.625L577.011 322.552L573.133 321.4L575.794 312.448L572.418 298.713Z" fill="#1D2339"/>
</g>
<defs>
<clipPath id="clip0_5128_170">
<rect width="753" height="337" fill="white"/>
</clipPath>
</defs>
</svg>
