<svg width="48" height="48" viewBox="0 0 48 48" fill="none" xmlns="http://www.w3.org/2000/svg">
<rect width="48" height="48" rx="24" fill="#26358C"/>
<g clip-path="url(#clip0_5128_160)">
<path d="M34.079 13.0596L11.3265 23.1012C10.8912 23.2948 10.8912 23.9449 11.3265 24.1248L15.4788 25.8665C16.2677 26.1975 17.1626 26.1198 17.8869 25.6575L30.8212 17.4025C30.9662 17.3057 31.0982 17.4993 30.9794 17.6238L22.9492 25.548C21.7642 26.7173 21.874 28.7023 23.1802 29.7252L23.7118 30.1414L29.5286 34.7196C30.3068 35.342 31.4412 34.8718 31.6126 33.862L34.9892 13.8064C35.0814 13.267 34.567 12.8382 34.079 13.0595V13.0596Z" fill="white"/>
</g>
<defs>
<clipPath id="clip0_5128_160">
<rect width="24" height="22" fill="white" transform="translate(11 13)"/>
</clipPath>
</defs>
</svg>
